<svg width="72px" height="72px" viewBox="0 0 84 72" version="1.1" xmlns="http://www.w3.org/2000/svg" xmlns:xlink="http://www.w3.org/1999/xlink">
    <!-- Generator: Sketch 46.1 (44463) - http://www.bohemiancoding.com/sketch -->
    <desc>Created with Sketch.</desc>
    <defs></defs>
    <g id="Page-1" stroke="none" stroke-width="1" fill="none" fill-rule="evenodd">
        <g id="logo-original-v2" transform="translate(35.000000, 30.000000)" fill-rule="nonzero" fill="#F49D25">
            <path d="M-17,-6 C-20.3,-6 -23,-3.3 -23,0 L-23,12 C-23,15.3 -20.3,18 -17,18 L31,18 C34.3,18 37,15.3 37,12 L37,0 C37,-3.3 34.3,-6 31,-6 L-17,-6 Z M-17,7.5 L-9.5,0 L-0.5,0 L7,7.5 L14.5,0 L23.5,0 L31,7.5 L31,12 L26.5,12 L19,4.5 L11.5,12 L2.5,12 L-5,4.5 L-12.5,12 L-17,12 L-17,7.5 Z M-3.5,22.5 L17.5,22.5 L17.5,25.5 L25,25.5 L7,34.5 L-11,25.5 L-3.5,25.5 L-3.5,22.5 Z M7,-30 C-16.16,-30 -35,-12.54 -35,9 L-35,36 C-35,39.3 -32.3,42 -29,42 L43,42 C46.3,42 49,39.3 49,36 L49,9 C49,-12.54 30.16,-30 7,-30 Z M43,36 L-29,36 L-29,9 C-29,-9.54 -13.16,-24.54 7,-24.54 C27.16,-24.54 43,-9.54 43,9 L43,36 Z" id="Shape"></path>
        </g>
    </g>
</svg>
